{
  "accessors": [
    {
      "bufferView": 2,
      "componentType": 5126,
      "count": 3346,
      "max": [
        6.9328732490539551,
        15.777449607849121,
        6.9191927909851074
      ],
      "min": [
        -6.9328732490539551,
        -1.0782543420791626,
        -6.9191927909851074
      ],
      "type": "VEC3"
    },
    {
      "bufferView": 2,
      "byteOffset": 40152,
      "componentType": 5126,
      "count": 3346,
      "max": [
        0.99978768825531006,
        1,
        0.99912393093109131
      ],
      "min": [
        -0.99978768825531006,
        -1,
        -0.99912393093109131
      ],
      "type": "VEC3"
    },
    {
      "bufferView": 1,
      "componentType": 5126,
      "count": 3346,
      "max": [
        0.97556906938552856,
        0.7939223051071167
      ],
      "min": [
        0.027934728190302849,
        0.058955192565917969
      ],
      "type": "VEC2"
    },
    {
      "bufferView": 0,
      "componentType": 5125,
      "count": 15903,
      "max": [
        3345
      ],
      "min": [
        0
      ],
      "type": "SCALAR"
    },
    {
      "bufferView": 2,
      "byteOffset": 80304,
      "componentType": 5126,
      "count": 1627,
      "max": [
        1.8883596658706665,
        0.63214868307113647,
        1.8883596658706665
      ],
      "min": [
        -1.8883596658706665,
        -0.27348107099533081,
        -1.8883596658706665
      ],
      "type": "VEC3"
    },
    {
      "bufferView": 2,
      "byteOffset": 99828,
      "componentType": 5126,
      "count": 1627,
      "max": [
        1,
        1,
        1
      ],
      "min": [
        -1,
        -1,
        -1
      ],
      "type": "VEC3"
    },
    {
      "bufferView": 1,
      "byteOffset": 26768,
      "componentType": 5126,
      "count": 1627,
      "max": [
        0.97837072610855103,
        0.97572928667068481
      ],
      "min": [
        0.0081436345353722572,
        0.058987617492675781
      ],
      "type": "VEC2"
    },
    {
      "bufferView": 0,
      "byteOffset": 63612,
      "componentType": 5125,
      "count": 7188,
      "max": [
        1626
      ],
      "min": [
        0
      ],
      "type": "SCALAR"
    },
    {
      "bufferView": 2,
      "byteOffset": 119352,
      "componentType": 5126,
      "count": 1627,
      "max": [
        1.8883596658706665,
        0.63214868307113647,
        1.8883596658706665
      ],
      "min": [
        -1.8883596658706665,
        -0.27348107099533081,
        -1.8883596658706665
      ],
      "type": "VEC3"
    },
    {
      "bufferView": 2,
      "byteOffset": 138876,
      "componentType": 5126,
      "count": 1627,
      "max": [
        1,
        1,
        1
      ],
      "min": [
        -1,
        -1,
        -1
      ],
      "type": "VEC3"
    },
    {
      "bufferView": 1,
      "byteOffset": 39784,
      "componentType": 5126,
      "count": 1627,
      "max": [
        0.97837072610855103,
        0.99214625358581543
      ],
      "min": [
        0.093282826244831085,
        0.059183001518249512
      ],
      "type": "VEC2"
    },
    {
      "bufferView": 0,
      "byteOffset": 92364,
      "componentType": 5125,
      "count": 7188,
      "max": [
        1626
      ],
      "min": [
        0
      ],
      "type": "SCALAR"
    },
    {
      "bufferView": 2,
      "byteOffset": 158400,
      "componentType": 5126,
      "count": 1621,
      "max": [
        3.6030683517456055,
        1.2061659097671509,
        3.6030683517456055
      ],
      "min": [
        -3.6030683517456055,
        -0.52181321382522583,
        -3.6030683517456055
      ],
      "type": "VEC3"
    },
    {
      "bufferView": 2,
      "byteOffset": 177852,
      "componentType": 5126,
      "count": 1621,
      "max": [
        1,
        1,
        1
      ],
      "min": [
        -1,
        -1,
        -1
      ],
      "type": "VEC3"
    },
    {
      "bufferView": 1,
      "byteOffset": 52800,
      "componentType": 5126,
      "count": 1621,
      "max": [
        0.97243928909301758,
        0.90102416276931763
      ],
      "min": [
        0.06939300149679184,
        0.072395801544189453
      ],
      "type": "VEC2"
    },
    {
      "bufferView": 0,
      "byteOffset": 121116,
      "componentType": 5125,
      "count": 7188,
      "max": [
        1620
      ],
      "min": [
        0
      ],
      "type": "SCALAR"
    },
    {
      "bufferView": 2,
      "byteOffset": 197304,
      "componentType": 5126,
      "count": 1620,
      "max": [
        3.6030683517456055,
        1.2061659097671509,
        3.6030683517456055
      ],
      "min": [
        -3.6030683517456055,
        -0.52181321382522583,
        -3.6030683517456055
      ],
      "type": "VEC3"
    },
    {
      "bufferView": 2,
      "byteOffset": 216744,
      "componentType": 5126,
      "count": 1620,
      "max": [
        1,
        1,
        1
      ],
      "min": [
        -1,
        -1,
        -1
      ],
      "type": "VEC3"
    },
    {
      "bufferView": 1,
      "byteOffset": 65768,
      "componentType": 5126,
      "count": 1620,
      "max": [
        0.97243928909301758,
        0.89037942886352539
      ],
      "min": [
        0.0081436345353722572,
        0.070785403251647949
      ],
      "type": "VEC2"
    },
    {
      "bufferView": 0,
      "byteOffset": 149868,
      "componentType": 5125,
      "count": 7188,
      "max": [
        1619
      ],
      "min": [
        0
      ],
      "type": "SCALAR"
    },
    {
      "bufferView": 2,
      "byteOffset": 236184,
      "componentType": 5126,
      "count": 1624,
      "max": [
        3.6030683517456055,
        1.2061659097671509,
        3.6030683517456055
      ],
      "min": [
        -3.6030683517456055,
        -0.52181321382522583,
        -3.6030683517456055
      ],
      "type": "VEC3"
    },
    {
      "bufferView": 2,
      "byteOffset": 255672,
      "componentType": 5126,
      "count": 1624,
      "max": [
        1,
        1,
        1
      ],
      "min": [
        -1,
        -1,
        -1
      ],
      "type": "VEC3"
    },
    {
      "bufferView": 1,
      "byteOffset": 78728,
      "componentType": 5126,
      "count": 1624,
      "max": [
        0.97243928909301758,
        0.94145488739013672
      ],
      "min": [
        0.37742793560028076,
        0.070785403251647949
      ],
      "type": "VEC2"
    },
    {
      "bufferView": 0,
      "byteOffset": 178620,
      "componentType": 5125,
      "count": 7188,
      "max": [
        1623
      ],
      "min": [
        0
      ],
      "type": "SCALAR"
    },
    {
      "bufferView": 2,
      "byteOffset": 275160,
      "componentType": 5126,
      "count": 1627,
      "max": [
        3.6030683517456055,
        1.2061659097671509,
        3.6030683517456055
      ],
      "min": [
        -3.6030683517456055,
        -0.52181321382522583,
        -3.6030683517456055
      ],
      "type": "VEC3"
    },
    {
      "bufferView": 2,
      "byteOffset": 294684,
      "componentType": 5126,
      "count": 1627,
      "max": [
        1,
        1,
        1
      ],
      "min": [
        -1,
        -1,
        -1
      ],
      "type": "VEC3"
    },
    {
      "bufferView": 1,
      "byteOffset": 91720,
      "componentType": 5126,
      "count": 1627,
      "max": [
        0.97243928909301758,
        0.91808527708053589
      ],
      "min": [
        0.0081436345353722572,
        0.072395801544189453
      ],
      "type": "VEC2"
    },
    {
      "bufferView": 0,
      "byteOffset": 207372,
      "componentType": 5125,
      "count": 7188,
      "max": [
        1626
      ],
      "min": [
        0
      ],
      "type": "SCALAR"
    },
    {
      "bufferView": 2,
      "byteOffset": 314208,
      "componentType": 5126,
      "count": 24,
      "max": [
        10,
        12.5,
        5
      ],
      "min": [
        -10,
        -12.5,
        -5
      ],
      "type": "VEC3"
    },
    {
      "bufferView": 2,
      "byteOffset": 314496,
      "componentType": 5126,
      "count": 24,
      "max": [
        1,
        1,
        1
      ],
      "min": [
        -1,
        -1,
        -1
      ],
      "type": "VEC3"
    },
    {
      "bufferView": 1,
      "byteOffset": 104736,
      "componentType": 5126,
      "count": 24,
      "max": [
        0.45201793313026428,
        0.56579899787902832
      ],
      "min": [
        0.31832513213157654,
        0.24702107906341553
      ],
      "type": "VEC2"
    },
    {
      "bufferView": 0,
      "byteOffset": 236124,
      "componentType": 5125,
      "count": 36,
      "max": [
        23
      ],
      "min": [
        0
      ],
      "type": "SCALAR"
    },
    {
      "bufferView": 2,
      "byteOffset": 314784,
      "componentType": 5126,
      "count": 1906,
      "max": [
        41.495033264160156,
        102.79341888427734,
        47.687671661376953
      ],
      "min": [
        -41.163597106933594,
        -103.8531494140625,
        -57.897590637207031
      ],
      "type": "VEC3"
    },
    {
      "bufferView": 2,
      "byteOffset": 337656,
      "componentType": 5126,
      "count": 1906,
      "max": [
        1,
        1,
        1
      ],
      "min": [
        -1,
        -1,
        -1
      ],
      "type": "VEC3"
    },
    {
      "bufferView": 1,
      "byteOffset": 104928,
      "componentType": 5126,
      "count": 1906,
      "max": [
        0.97765612602233887,
        0.99214625358581543
      ],
      "min": [
        0.0081436345353722572,
        0.056687831878662109
      ],
      "type": "VEC2"
    },
    {
      "bufferView": 0,
      "byteOffset": 236268,
      "componentType": 5125,
      "count": 7791,
      "max": [
        1905
      ],
      "min": [
        0
      ],
      "type": "SCALAR"
    }
  ],
  "asset": {
    "extras": {
      "author": "threedeejunkee (https://sketchfab.com/threedeejunkee)",
      "license": "CC-BY-NC-ND-4.0 (http://creativecommons.org/licenses/by-nc-nd/4.0/)",
      "source": "https://sketchfab.com/3d-models/tacky-arcade-machine-562c5aa7033449ecbec4215193abd8ae",
      "title": "Tacky Arcade Machine"
    },
    "generator": "Sketchfab-9.88.0",
    "version": "2.0"
  },
  "bufferViews": [
    {
      "buffer": 0,
      "byteLength": 267432,
      "byteOffset": 0,
      "name": "floatBufferViews",
      "target": 34963
    },
    {
      "buffer": 0,
      "byteLength": 120176,
      "byteOffset": 267432,
      "byteStride": 8,
      "name": "floatBufferViews",
      "target": 34962
    },
    {
      "buffer": 0,
      "byteLength": 360528,
      "byteOffset": 387608,
      "byteStride": 12,
      "name": "floatBufferViews",
      "target": 34962
    }
  ],
  "buffers": [
    {
      "byteLength": 748136,
      "uri": "scene.bin"
    }
  ],
  "images": [
    {
      "uri": "textures/Machine.1_baseColor.png"
    },
    {
      "uri": "textures/Machine.1_metallicRoughness.png"
    }
  ],
  "materials": [
    {
      "doubleSided": true,
      "emissiveFactor": [
        0,
        0,
        0
      ],
      "name": "Machine.1",
      "pbrMetallicRoughness": {
        "baseColorFactor": [
          1,
          1,
          1,
          1
        ],
        "baseColorTexture": {
          "index": 0,
          "texCoord": 0
        },
        "metallicFactor": 0,
        "metallicRoughnessTexture": {
          "index": 1,
          "texCoord": 0
        },
        "roughnessFactor": 0.20000000000000001
      }
    }
  ],
  "meshes": [
    {
      "name": "Joystick_Machine.1_0",
      "primitives": [
        {
          "attributes": {
            "NORMAL": 1,
            "POSITION": 0,
            "TEXCOORD_0": 2
          },
          "indices": 3,
          "material": 0,
          "mode": 4
        }
      ]
    },
    {
      "name": "Small_Button1_Machine.1_0",
      "primitives": [
        {
          "attributes": {
            "NORMAL": 5,
            "POSITION": 4,
            "TEXCOORD_0": 6
          },
          "indices": 7,
          "material": 0,
          "mode": 4
        }
      ]
    },
    {
      "name": "Small_Button2_Machine.1_0",
      "primitives": [
        {
          "attributes": {
            "NORMAL": 9,
            "POSITION": 8,
            "TEXCOORD_0": 10
          },
          "indices": 11,
          "material": 0,
          "mode": 4
        }
      ]
    },
    {
      "name": "4_Machine.1_0",
      "primitives": [
        {
          "attributes": {
            "NORMAL": 13,
            "POSITION": 12,
            "TEXCOORD_0": 14
          },
          "indices": 15,
          "material": 0,
          "mode": 4
        }
      ]
    },
    {
      "name": "3_Machine.1_0",
      "primitives": [
        {
          "attributes": {
            "NORMAL": 17,
            "POSITION": 16,
            "TEXCOORD_0": 18
          },
          "indices": 19,
          "material": 0,
          "mode": 4
        }
      ]
    },
    {
      "name": "2_Machine.1_0",
      "primitives": [
        {
          "attributes": {
            "NORMAL": 21,
            "POSITION": 20,
            "TEXCOORD_0": 22
          },
          "indices": 23,
          "material": 0,
          "mode": 4
        }
      ]
    },
    {
      "name": "1_Machine.1_0",
      "primitives": [
        {
          "attributes": {
            "NORMAL": 25,
            "POSITION": 24,
            "TEXCOORD_0": 26
          },
          "indices": 27,
          "material": 0,
          "mode": 4
        }
      ]
    },
    {
      "name": "Machine_part_Machine.1_0",
      "primitives": [
        {
          "attributes": {
            "NORMAL": 29,
            "POSITION": 28,
            "TEXCOORD_0": 30
          },
          "indices": 31,
          "material": 0,
          "mode": 4
        }
      ]
    },
    {
      "name": "Machine_Machine.1_0",
      "primitives": [
        {
          "attributes": {
            "NORMAL": 33,
            "POSITION": 32,
            "TEXCOORD_0": 34
          },
          "indices": 35,
          "material": 0,
          "mode": 4
        }
      ]
    }
  ],
  "nodes": [
    {
      "children": [
        1
      ],
      "name": "RootNode (gltf orientation matrix)",
      "rotation": [
        -0.70710678118654746,
        -0,
        -0,
        0.70710678118654757
      ]
    },
    {
      "children": [
        2
      ],
      "matrix": [
        0.0095238098874688148,
        0,
        0,
        0,
        0,
        0.0095238098874688148,
        0,
        0,
        0,
        0,
        0.0095238098874688148,
        0,
        0,
        0,
        0,
        1
      ],
      "name": "RootNode (model correction matrix)"
    },
    {
      "children": [
        3
      ],
      "matrix": [
        1,
        0,
        0,
        0,
        0,
        0,
        1,
        0,
        0,
        -1,
        0,
        0,
        0,
        0,
        0,
        1
      ],
      "name": "Arcade Machine.fbx"
    },
    {
      "children": [
        4
      ],
      "name": "RootNode"
    },
    {
      "children": [
        5,
        7,
        12,
        21,
        23
      ],
      "matrix": [
        -1,
        -1.2246467991473535e-16,
        1.224646799147353e-16,
        0,
        -1.2246467991473535e-16,
        1,
        -1.2246467991473535e-16,
        0,
        -1.224646799147353e-16,
        -1.2246467991473535e-16,
        -1,
        0,
        0,
        100,
        6.1755091659634344e-16,
        1
      ],
      "name": "_BAKED__Arcade_Machine"
    },
    {
      "children": [
        6
      ],
      "matrix": [
        1,
        2.4492935982947069e-16,
        -7.2414965908960068e-32,
        0,
        -2.4358761116894308e-16,
        0.9945218953682734,
        -0.10452846326765299,
        0,
        -2.560208959210451e-17,
        0.10452846326765299,
        0.9945218953682734,
        0,
        23,
        9,
        -25,
        1
      ],
      "name": "Joystick"
    },
    {
      "mesh": 0,
      "name": "Joystick_Machine.1_0"
    },
    {
      "children": [
        8,
        10
      ],
      "matrix": [
        1,
        2.4492935982947064e-16,
        -7.7037197775489434e-32,
        0,
        -2.4310369352271371e-16,
        0.99254615164132198,
        -0.12186934340514811,
        0,
        -2.9849380263060776e-17,
        0.12186934340514811,
        0.99254615164132198,
        0,
        2,
        7.5114192962646484,
        -17.805564880371094,
        1
      ],
      "name": "Small_Buttons"
    },
    {
      "children": [
        9
      ],
      "matrix": [
        1,
        1.2325951644078309e-32,
        0,
        0,
        -1.2325951644078309e-32,
        1,
        0,
        0,
        0,
        0,
        1,
        0,
        3.3523595333099365,
        2.8421709430404007e-14,
        7.1054273576010019e-15,
        1
      ],
      "name": "Small_Button1"
    },
    {
      "mesh": 1,
      "name": "Small_Button1_Machine.1_0"
    },
    {
      "children": [
        11
      ],
      "matrix": [
        1,
        1.2325951644078309e-32,
        0,
        0,
        -1.2325951644078309e-32,
        1,
        0,
        0,
        0,
        0,
        1,
        0,
        -3.3523595333099365,
        1.4210854715202004e-14,
        1.2434497875801753e-14,
        1
      ],
      "name": "Small_Button2"
    },
    {
      "mesh": 2,
      "name": "Small_Button2_Machine.1_0"
    },
    {
      "children": [
        13,
        15,
        17,
        19
      ],
      "matrix": [
        1,
        2.4492935982947064e-16,
        -7.7037197775489434e-32,
        0,
        -2.4310369352271371e-16,
        0.99254615164132198,
        -0.12186934340514811,
        0,
        -2.9849380263060776e-17,
        0.12186934340514811,
        0.99254615164132198,
        0,
        -20,
        6.5311727523803711,
        -25.769681930541992,
        1
      ],
      "name": "Control_Buttons"
    },
    {
      "children": [
        14
      ],
      "matrix": [
        1,
        1.540743955509789e-32,
        0,
        0,
        -1.540743955509789e-32,
        1,
        4.4408920985006271e-16,
        0,
        6.8422776578360233e-48,
        -4.4408920985006271e-16,
        1,
        0,
        -8.2860193252563477,
        -0.0192584078758955,
        -0.060542639344930649,
        1
      ],
      "name": "4"
    },
    {
      "mesh": 3,
      "name": "4_Machine.1_0"
    },
    {
      "children": [
        16
      ],
      "matrix": [
        1,
        1.540743955509789e-32,
        0,
        0,
        -1.540743955509789e-32,
        1,
        4.4408920985006252e-16,
        0,
        6.8422776578360209e-48,
        -4.4408920985006252e-16,
        1,
        0,
        -0.33807441592216492,
        0.036158792674541473,
        -7.9031319618225098,
        1
      ],
      "name": "3"
    },
    {
      "mesh": 4,
      "name": "3_Machine.1_0"
    },
    {
      "children": [
        18
      ],
      "matrix": [
        1,
        1.540743955509789e-32,
        0,
        0,
        -1.540743955509789e-32,
        1,
        4.4408920985006252e-16,
        0,
        6.8422776578360209e-48,
        -4.4408920985006252e-16,
        1,
        0,
        7.609870433807373,
        -0.0192584078758955,
        -0.060542639344930649,
        1
      ],
      "name": "2"
    },
    {
      "mesh": 5,
      "name": "2_Machine.1_0"
    },
    {
      "children": [
        20
      ],
      "matrix": [
        1,
        1.540743955509789e-32,
        0,
        0,
        -1.540743955509789e-32,
        1,
        4.4408920985006252e-16,
        0,
        6.8422776578360209e-48,
        -4.4408920985006252e-16,
        1,
        0,
        -0.33807441592216492,
        0.0023580235429108143,
        8.0242176055908203,
        1
      ],
      "name": "1"
    },
    {
      "mesh": 6,
      "name": "1_Machine.1_0"
    },
    {
      "children": [
        22
      ],
      "matrix": [
        -1,
        -1.2246467991473535e-16,
        1.2246467991473535e-16,
        0,
        -1.2246467991473535e-16,
        1,
        -1.2246467991473535e-16,
        0,
        -1.2246467991473535e-16,
        -1.2246467991473535e-16,
        -1,
        0,
        -0.41113680601119995,
        -64.592315673828125,
        -3.9104082584381104,
        1
      ],
      "name": "Machine_part"
    },
    {
      "mesh": 7,
      "name": "Machine_part_Machine.1_0"
    },
    {
      "children": [
        24
      ],
      "matrix": [
        1,
        2.4492935982947069e-16,
        -1.2325951644078309e-31,
        0,
        -2.4492935982947069e-16,
        1,
        -7.3955709864469868e-32,
        0,
        1.2325951644078309e-31,
        7.395570986446989e-32,
        1,
        0,
        3.9991898274959262e-16,
        -3.2655863761901855,
        12.884840965270996,
        1
      ],
      "name": "Machine"
    },
    {
      "mesh": 8,
      "name": "Machine_Machine.1_0"
    }
  ],
  "samplers": [
    {
      "magFilter": 9729,
      "minFilter": 9987,
      "wrapS": 10497,
      "wrapT": 10497
    }
  ],
  "scene": 0,
  "scenes": [
    {
      "name": "OSG_Scene",
      "nodes": [
        0
      ]
    }
  ],
  "textures": [
    {
      "sampler": 0,
      "source": 0
    },
    {
      "sampler": 0,
      "source": 1
    }
  ]
}

